<svg xmlns="http://www.w3.org/2000/svg" viewBox="0 0 96 96" role="img" aria-label="Airgap Architect">
  <defs>
    <linearGradient id="g" x1="0" x2="1" y1="0" y2="1">
      <stop offset="0%" stop-color="#f5f5f5"/>
      <stop offset="100%" stop-color="#d1d5db"/>
    </linearGradient>
  </defs>
  <circle cx="48" cy="48" r="46" fill="url(#g)"/>
  <path d="M22 36c0-6 26-14 26-14s26 8 26 14-11 8-26 8-26-2-26-8z" fill="#cc0000"/>
  <path d="M32 54c0-6 8-14 16-14s16 8 16 14v10H32V54z" fill="#374151"/>
  <path d="M34 66h28l6 12H28l6-12z" fill="#1f2937"/>
  <path d="M36 32c2-8 10-12 12-12s10 4 12 12" fill="#b91c1c"/>
  <path d="M35 41c0-3 6-6 13-6s13 3 13 6-6 5-13 5-13-2-13-5z" fill="#ffffff"/>
</svg>
